<mxfile host="Electron" modified="2024-05-16T14:08:05.026Z" agent="Mozilla/5.0 (Windows NT 10.0; Win64; x64) AppleWebKit/537.36 (KHTML, like Gecko) draw.io/24.2.5 Chrome/120.0.6099.109 Electron/28.1.0 Safari/537.36" etag="f1irr80efwFzdYnRIRvC" version="24.2.5" type="device" pages="3">
  <diagram name="A" id="ld2hlWWPTbnYIlCEyBAs">
    <mxGraphModel dx="2023" dy="1800" grid="1" gridSize="10" guides="1" tooltips="1" connect="1" arrows="1" fold="1" page="1" pageScale="1" pageWidth="827" pageHeight="1169" math="0" shadow="0">
      <root>
        <mxCell id="0" />
        <mxCell id="1" parent="0" />
        <mxCell id="uy9zVQAJtBAQSSv0pygf-1" value="Pasajero" style="swimlane;fontStyle=1;align=center;verticalAlign=top;childLayout=stackLayout;horizontal=1;startSize=26;horizontalStack=0;resizeParent=1;resizeParentMax=0;resizeLast=0;collapsible=1;marginBottom=0;whiteSpace=wrap;html=1;" parent="1" vertex="1">
          <mxGeometry x="-10" y="318" width="170" height="110" as="geometry" />
        </mxCell>
        <mxCell id="uy9zVQAJtBAQSSv0pygf-2" value="- nombre:String&lt;br&gt;- dni:Integer" style="text;strokeColor=none;fillColor=none;align=left;verticalAlign=top;spacingLeft=4;spacingRight=4;overflow=hidden;rotatable=0;points=[[0,0.5],[1,0.5]];portConstraint=eastwest;whiteSpace=wrap;html=1;" parent="uy9zVQAJtBAQSSv0pygf-1" vertex="1">
          <mxGeometry y="26" width="170" height="34" as="geometry" />
        </mxCell>
        <mxCell id="uy9zVQAJtBAQSSv0pygf-3" value="" style="line;strokeWidth=1;fillColor=none;align=left;verticalAlign=middle;spacingTop=-1;spacingLeft=3;spacingRight=3;rotatable=0;labelPosition=right;points=[];portConstraint=eastwest;strokeColor=inherit;" parent="uy9zVQAJtBAQSSv0pygf-1" vertex="1">
          <mxGeometry y="60" width="170" height="8" as="geometry" />
        </mxCell>
        <mxCell id="uy9zVQAJtBAQSSv0pygf-4" value="- &amp;lt;&amp;lt;create&amp;gt;&amp;gt; (nombre:String, dni:Integer)" style="text;strokeColor=none;fillColor=none;align=left;verticalAlign=top;spacingLeft=4;spacingRight=4;overflow=hidden;rotatable=0;points=[[0,0.5],[1,0.5]];portConstraint=eastwest;whiteSpace=wrap;html=1;" parent="uy9zVQAJtBAQSSv0pygf-1" vertex="1">
          <mxGeometry y="68" width="170" height="42" as="geometry" />
        </mxCell>
        <mxCell id="uy9zVQAJtBAQSSv0pygf-15" style="edgeStyle=orthogonalEdgeStyle;rounded=0;orthogonalLoop=1;jettySize=auto;html=1;entryX=-0.004;entryY=0.298;entryDx=0;entryDy=0;entryPerimeter=0;" parent="1" source="uy9zVQAJtBAQSSv0pygf-5" target="uy9zVQAJtBAQSSv0pygf-10" edge="1">
          <mxGeometry relative="1" as="geometry">
            <mxPoint x="320" y="255" as="targetPoint" />
            <Array as="points" />
          </mxGeometry>
        </mxCell>
        <mxCell id="uy9zVQAJtBAQSSv0pygf-5" value="Pasaje" style="swimlane;fontStyle=1;align=center;verticalAlign=top;childLayout=stackLayout;horizontal=1;startSize=26;horizontalStack=0;resizeParent=1;resizeParentMax=0;resizeLast=0;collapsible=1;marginBottom=0;whiteSpace=wrap;html=1;" parent="1" vertex="1">
          <mxGeometry x="-10" y="123" width="170" height="110" as="geometry" />
        </mxCell>
        <mxCell id="uy9zVQAJtBAQSSv0pygf-6" value="- rateDiario: Real[*]" style="text;strokeColor=none;fillColor=none;align=left;verticalAlign=top;spacingLeft=4;spacingRight=4;overflow=hidden;rotatable=0;points=[[0,0.5],[1,0.5]];portConstraint=eastwest;whiteSpace=wrap;html=1;" parent="uy9zVQAJtBAQSSv0pygf-5" vertex="1">
          <mxGeometry y="26" width="170" height="24" as="geometry" />
        </mxCell>
        <mxCell id="uy9zVQAJtBAQSSv0pygf-7" value="" style="line;strokeWidth=1;fillColor=none;align=left;verticalAlign=middle;spacingTop=-1;spacingLeft=3;spacingRight=3;rotatable=0;labelPosition=right;points=[];portConstraint=eastwest;strokeColor=inherit;" parent="uy9zVQAJtBAQSSv0pygf-5" vertex="1">
          <mxGeometry y="50" width="170" height="8" as="geometry" />
        </mxCell>
        <mxCell id="uy9zVQAJtBAQSSv0pygf-8" value="+ rateRoundTrip():Real&lt;br&gt;+ rateMultiHop():Real&lt;div&gt;+ costo():Real&lt;/div&gt;" style="text;strokeColor=none;fillColor=none;align=left;verticalAlign=top;spacingLeft=4;spacingRight=4;overflow=hidden;rotatable=0;points=[[0,0.5],[1,0.5]];portConstraint=eastwest;whiteSpace=wrap;html=1;" parent="uy9zVQAJtBAQSSv0pygf-5" vertex="1">
          <mxGeometry y="58" width="170" height="52" as="geometry" />
        </mxCell>
        <mxCell id="ZBg888UY2NzjFFwERr93-18" style="edgeStyle=orthogonalEdgeStyle;rounded=0;orthogonalLoop=1;jettySize=auto;html=1;exitX=0.5;exitY=1;exitDx=0;exitDy=0;entryX=0.5;entryY=0;entryDx=0;entryDy=0;" parent="1" source="uy9zVQAJtBAQSSv0pygf-9" target="ZBg888UY2NzjFFwERr93-6" edge="1">
          <mxGeometry relative="1" as="geometry" />
        </mxCell>
        <mxCell id="uy9zVQAJtBAQSSv0pygf-9" value="Tramo" style="swimlane;fontStyle=1;align=center;verticalAlign=top;childLayout=stackLayout;horizontal=1;startSize=26;horizontalStack=0;resizeParent=1;resizeParentMax=0;resizeLast=0;collapsible=1;marginBottom=0;whiteSpace=wrap;html=1;" parent="1" vertex="1">
          <mxGeometry x="380" y="145" width="160" height="100" as="geometry" />
        </mxCell>
        <mxCell id="uy9zVQAJtBAQSSv0pygf-10" value="- dia:Days" style="text;strokeColor=none;fillColor=none;align=left;verticalAlign=top;spacingLeft=4;spacingRight=4;overflow=hidden;rotatable=0;points=[[0,0.5],[1,0.5]];portConstraint=eastwest;whiteSpace=wrap;html=1;" parent="uy9zVQAJtBAQSSv0pygf-9" vertex="1">
          <mxGeometry y="26" width="160" height="24" as="geometry" />
        </mxCell>
        <mxCell id="uy9zVQAJtBAQSSv0pygf-11" value="" style="line;strokeWidth=1;fillColor=none;align=left;verticalAlign=middle;spacingTop=-1;spacingLeft=3;spacingRight=3;rotatable=0;labelPosition=right;points=[];portConstraint=eastwest;strokeColor=inherit;" parent="uy9zVQAJtBAQSSv0pygf-9" vertex="1">
          <mxGeometry y="50" width="160" height="8" as="geometry" />
        </mxCell>
        <mxCell id="uy9zVQAJtBAQSSv0pygf-12" value="+ duracion():Time&lt;br&gt;+ horaLlegada():Hour" style="text;strokeColor=none;fillColor=none;align=left;verticalAlign=top;spacingLeft=4;spacingRight=4;overflow=hidden;rotatable=0;points=[[0,0.5],[1,0.5]];portConstraint=eastwest;whiteSpace=wrap;html=1;" parent="uy9zVQAJtBAQSSv0pygf-9" vertex="1">
          <mxGeometry y="58" width="160" height="42" as="geometry" />
        </mxCell>
        <mxCell id="uy9zVQAJtBAQSSv0pygf-13" value="" style="endArrow=classic;html=1;rounded=0;entryX=0.5;entryY=0;entryDx=0;entryDy=0;exitX=0.5;exitY=1;exitDx=0;exitDy=0;" parent="1" source="uy9zVQAJtBAQSSv0pygf-5" target="uy9zVQAJtBAQSSv0pygf-1" edge="1">
          <mxGeometry width="50" height="50" relative="1" as="geometry">
            <mxPoint x="160" y="310" as="sourcePoint" />
            <mxPoint x="300" y="450" as="targetPoint" />
          </mxGeometry>
        </mxCell>
        <mxCell id="ZBg888UY2NzjFFwERr93-1" value="1..*&lt;br&gt;tramos" style="text;html=1;align=center;verticalAlign=middle;resizable=0;points=[];autosize=1;strokeColor=none;fillColor=none;" parent="1" vertex="1">
          <mxGeometry x="210" y="140" width="60" height="40" as="geometry" />
        </mxCell>
        <mxCell id="ZBg888UY2NzjFFwERr93-6" value="&lt;p style=&quot;margin:0px;margin-top:4px;text-align:center;&quot;&gt;&lt;i&gt;&amp;lt;&amp;lt;Abstract&amp;gt;&amp;gt;&lt;/i&gt;&lt;br&gt;&lt;b&gt;Pilatus PC-12&lt;/b&gt;&lt;/p&gt;&lt;hr size=&quot;1&quot;&gt;&lt;p style=&quot;margin:0px;margin-left:4px;&quot;&gt;- capacidadCarga:Integer&lt;/p&gt;&lt;p style=&quot;margin:0px;margin-left:4px;&quot;&gt;- asientos:Integer&lt;/p&gt;&lt;hr size=&quot;1&quot;&gt;&lt;p style=&quot;margin:0px;margin-left:4px;&quot;&gt;+ &amp;lt;&amp;lt;create&amp;gt;&amp;gt; (capacidadCarga:Integer, asientos:Integer)&lt;/p&gt;" style="verticalAlign=top;align=left;overflow=fill;fontSize=12;fontFamily=Helvetica;html=1;whiteSpace=wrap;" parent="1" vertex="1">
          <mxGeometry x="342.5" y="370" width="235" height="120" as="geometry" />
        </mxCell>
        <mxCell id="ZBg888UY2NzjFFwERr93-16" style="edgeStyle=orthogonalEdgeStyle;rounded=0;orthogonalLoop=1;jettySize=auto;html=1;entryX=0.5;entryY=1;entryDx=0;entryDy=0;" parent="1" source="ZBg888UY2NzjFFwERr93-7" target="ZBg888UY2NzjFFwERr93-6" edge="1">
          <mxGeometry relative="1" as="geometry">
            <Array as="points">
              <mxPoint x="345" y="510" />
              <mxPoint x="460" y="510" />
            </Array>
          </mxGeometry>
        </mxCell>
        <mxCell id="ZBg888UY2NzjFFwERr93-7" value="Estandar" style="swimlane;fontStyle=1;align=center;verticalAlign=top;childLayout=stackLayout;horizontal=1;startSize=26;horizontalStack=0;resizeParent=1;resizeParentMax=0;resizeLast=0;collapsible=1;marginBottom=0;whiteSpace=wrap;html=1;" parent="1" vertex="1">
          <mxGeometry x="265" y="520" width="160" height="84" as="geometry" />
        </mxCell>
        <mxCell id="ZBg888UY2NzjFFwERr93-8" value="-&amp;nbsp;" style="text;strokeColor=none;fillColor=none;align=left;verticalAlign=top;spacingLeft=4;spacingRight=4;overflow=hidden;rotatable=0;points=[[0,0.5],[1,0.5]];portConstraint=eastwest;whiteSpace=wrap;html=1;" parent="ZBg888UY2NzjFFwERr93-7" vertex="1">
          <mxGeometry y="26" width="160" height="24" as="geometry" />
        </mxCell>
        <mxCell id="ZBg888UY2NzjFFwERr93-9" value="" style="line;strokeWidth=1;fillColor=none;align=left;verticalAlign=middle;spacingTop=-1;spacingLeft=3;spacingRight=3;rotatable=0;labelPosition=right;points=[];portConstraint=eastwest;strokeColor=inherit;" parent="ZBg888UY2NzjFFwERr93-7" vertex="1">
          <mxGeometry y="50" width="160" height="8" as="geometry" />
        </mxCell>
        <mxCell id="ZBg888UY2NzjFFwERr93-10" value="-" style="text;strokeColor=none;fillColor=none;align=left;verticalAlign=top;spacingLeft=4;spacingRight=4;overflow=hidden;rotatable=0;points=[[0,0.5],[1,0.5]];portConstraint=eastwest;whiteSpace=wrap;html=1;" parent="ZBg888UY2NzjFFwERr93-7" vertex="1">
          <mxGeometry y="58" width="160" height="26" as="geometry" />
        </mxCell>
        <mxCell id="ZBg888UY2NzjFFwERr93-17" style="edgeStyle=orthogonalEdgeStyle;rounded=0;orthogonalLoop=1;jettySize=auto;html=1;exitX=0.5;exitY=0;exitDx=0;exitDy=0;" parent="1" source="ZBg888UY2NzjFFwERr93-11" edge="1">
          <mxGeometry relative="1" as="geometry">
            <mxPoint x="460" y="490" as="targetPoint" />
            <Array as="points">
              <mxPoint x="575" y="510" />
              <mxPoint x="460" y="510" />
            </Array>
          </mxGeometry>
        </mxCell>
        <mxCell id="ZBg888UY2NzjFFwERr93-11" value="Ejecutiva" style="swimlane;fontStyle=1;align=center;verticalAlign=top;childLayout=stackLayout;horizontal=1;startSize=26;horizontalStack=0;resizeParent=1;resizeParentMax=0;resizeLast=0;collapsible=1;marginBottom=0;whiteSpace=wrap;html=1;" parent="1" vertex="1">
          <mxGeometry x="495" y="520" width="160" height="84" as="geometry" />
        </mxCell>
        <mxCell id="ZBg888UY2NzjFFwERr93-12" value="-&amp;nbsp;" style="text;strokeColor=none;fillColor=none;align=left;verticalAlign=top;spacingLeft=4;spacingRight=4;overflow=hidden;rotatable=0;points=[[0,0.5],[1,0.5]];portConstraint=eastwest;whiteSpace=wrap;html=1;" parent="ZBg888UY2NzjFFwERr93-11" vertex="1">
          <mxGeometry y="26" width="160" height="24" as="geometry" />
        </mxCell>
        <mxCell id="ZBg888UY2NzjFFwERr93-13" value="" style="line;strokeWidth=1;fillColor=none;align=left;verticalAlign=middle;spacingTop=-1;spacingLeft=3;spacingRight=3;rotatable=0;labelPosition=right;points=[];portConstraint=eastwest;strokeColor=inherit;" parent="ZBg888UY2NzjFFwERr93-11" vertex="1">
          <mxGeometry y="50" width="160" height="8" as="geometry" />
        </mxCell>
        <mxCell id="ZBg888UY2NzjFFwERr93-14" value="-" style="text;strokeColor=none;fillColor=none;align=left;verticalAlign=top;spacingLeft=4;spacingRight=4;overflow=hidden;rotatable=0;points=[[0,0.5],[1,0.5]];portConstraint=eastwest;whiteSpace=wrap;html=1;" parent="ZBg888UY2NzjFFwERr93-11" vertex="1">
          <mxGeometry y="58" width="160" height="26" as="geometry" />
        </mxCell>
        <mxCell id="ZBg888UY2NzjFFwERr93-19" value="avion" style="text;html=1;align=center;verticalAlign=middle;resizable=0;points=[];autosize=1;strokeColor=none;fillColor=none;" parent="1" vertex="1">
          <mxGeometry x="455" y="318" width="50" height="30" as="geometry" />
        </mxCell>
        <mxCell id="ZBg888UY2NzjFFwERr93-21" value="Empresa" style="swimlane;fontStyle=1;align=center;verticalAlign=top;childLayout=stackLayout;horizontal=1;startSize=26;horizontalStack=0;resizeParent=1;resizeParentMax=0;resizeLast=0;collapsible=1;marginBottom=0;whiteSpace=wrap;html=1;" parent="1" vertex="1">
          <mxGeometry x="270" y="-160" width="240" height="200" as="geometry" />
        </mxCell>
        <mxCell id="ZBg888UY2NzjFFwERr93-22" value="-" style="text;strokeColor=none;fillColor=none;align=left;verticalAlign=top;spacingLeft=4;spacingRight=4;overflow=hidden;rotatable=0;points=[[0,0.5],[1,0.5]];portConstraint=eastwest;whiteSpace=wrap;html=1;" parent="ZBg888UY2NzjFFwERr93-21" vertex="1">
          <mxGeometry y="26" width="240" height="26" as="geometry" />
        </mxCell>
        <mxCell id="ZBg888UY2NzjFFwERr93-23" value="" style="line;strokeWidth=1;fillColor=none;align=left;verticalAlign=middle;spacingTop=-1;spacingLeft=3;spacingRight=3;rotatable=0;labelPosition=right;points=[];portConstraint=eastwest;strokeColor=inherit;" parent="ZBg888UY2NzjFFwERr93-21" vertex="1">
          <mxGeometry y="52" width="240" height="8" as="geometry" />
        </mxCell>
        <mxCell id="ZBg888UY2NzjFFwERr93-24" value="+ promedioOcupacion:Real[*]&lt;br&gt;+ horasVoladasPorAvionEntre(inicio:Date, fin:Date)&lt;br&gt;+ horasVoladasPorAvionTotal():Time[*]&lt;br&gt;+ montoTotalDescuentos():Real&lt;br&gt;+ eficienciaTarifas():Real&lt;div&gt;+ emitir()&lt;br&gt;+ cancelar(pasaje:Pasaje)&lt;br&gt;+ modificar(pasaje:Pasaje)&lt;br&gt;&lt;/div&gt;" style="text;strokeColor=none;fillColor=none;align=left;verticalAlign=top;spacingLeft=4;spacingRight=4;overflow=hidden;rotatable=0;points=[[0,0.5],[1,0.5]];portConstraint=eastwest;whiteSpace=wrap;html=1;" parent="ZBg888UY2NzjFFwERr93-21" vertex="1">
          <mxGeometry y="60" width="240" height="140" as="geometry" />
        </mxCell>
        <mxCell id="ZBg888UY2NzjFFwERr93-25" style="edgeStyle=orthogonalEdgeStyle;rounded=0;orthogonalLoop=1;jettySize=auto;html=1;entryX=0.5;entryY=0;entryDx=0;entryDy=0;" parent="1" source="ZBg888UY2NzjFFwERr93-24" target="uy9zVQAJtBAQSSv0pygf-5" edge="1">
          <mxGeometry relative="1" as="geometry" />
        </mxCell>
        <mxCell id="ZBg888UY2NzjFFwERr93-26" style="edgeStyle=orthogonalEdgeStyle;rounded=0;orthogonalLoop=1;jettySize=auto;html=1;entryX=0.5;entryY=0;entryDx=0;entryDy=0;exitX=0.793;exitY=1.007;exitDx=0;exitDy=0;exitPerimeter=0;" parent="1" source="ZBg888UY2NzjFFwERr93-24" target="uy9zVQAJtBAQSSv0pygf-9" edge="1">
          <mxGeometry relative="1" as="geometry">
            <Array as="points">
              <mxPoint x="460" y="39" />
            </Array>
          </mxGeometry>
        </mxCell>
        <mxCell id="ZBg888UY2NzjFFwERr93-27" value="0..*&lt;br&gt;vuelos" style="text;html=1;align=center;verticalAlign=middle;resizable=0;points=[];autosize=1;strokeColor=none;fillColor=none;" parent="1" vertex="1">
          <mxGeometry x="460" y="83" width="60" height="40" as="geometry" />
        </mxCell>
        <mxCell id="ZBg888UY2NzjFFwERr93-28" value="0..*&lt;br&gt;pasajes" style="text;html=1;align=center;verticalAlign=middle;resizable=0;points=[];autosize=1;strokeColor=none;fillColor=none;" parent="1" vertex="1">
          <mxGeometry x="160" y="-72" width="60" height="40" as="geometry" />
        </mxCell>
        <mxCell id="ZxpX5ldxoqdNCNuCcYS1-1" value="Vuelo" style="swimlane;fontStyle=1;align=center;verticalAlign=top;childLayout=stackLayout;horizontal=1;startSize=26;horizontalStack=0;resizeParent=1;resizeParentMax=0;resizeLast=0;collapsible=1;marginBottom=0;whiteSpace=wrap;html=1;" vertex="1" parent="1">
          <mxGeometry x="631" y="126" width="160" height="140" as="geometry" />
        </mxCell>
        <mxCell id="ZxpX5ldxoqdNCNuCcYS1-2" value="- salidaReal:Hour&lt;br&gt;&lt;div&gt;- origen:String&lt;/div&gt;&lt;div&gt;- destino: String&lt;/div&gt;&lt;div&gt;- precio: Real&lt;/div&gt;" style="text;strokeColor=none;fillColor=none;align=left;verticalAlign=top;spacingLeft=4;spacingRight=4;overflow=hidden;rotatable=0;points=[[0,0.5],[1,0.5]];portConstraint=eastwest;whiteSpace=wrap;html=1;" vertex="1" parent="ZxpX5ldxoqdNCNuCcYS1-1">
          <mxGeometry y="26" width="160" height="64" as="geometry" />
        </mxCell>
        <mxCell id="ZxpX5ldxoqdNCNuCcYS1-3" value="" style="line;strokeWidth=1;fillColor=none;align=left;verticalAlign=middle;spacingTop=-1;spacingLeft=3;spacingRight=3;rotatable=0;labelPosition=right;points=[];portConstraint=eastwest;strokeColor=inherit;" vertex="1" parent="ZxpX5ldxoqdNCNuCcYS1-1">
          <mxGeometry y="90" width="160" height="8" as="geometry" />
        </mxCell>
        <mxCell id="ZxpX5ldxoqdNCNuCcYS1-4" value="+ duracion():Time&lt;br&gt;+ horaLlegada():Hour" style="text;strokeColor=none;fillColor=none;align=left;verticalAlign=top;spacingLeft=4;spacingRight=4;overflow=hidden;rotatable=0;points=[[0,0.5],[1,0.5]];portConstraint=eastwest;whiteSpace=wrap;html=1;" vertex="1" parent="ZxpX5ldxoqdNCNuCcYS1-1">
          <mxGeometry y="98" width="160" height="42" as="geometry" />
        </mxCell>
        <mxCell id="ZxpX5ldxoqdNCNuCcYS1-6" style="edgeStyle=orthogonalEdgeStyle;rounded=0;orthogonalLoop=1;jettySize=auto;html=1;entryX=0;entryY=0.5;entryDx=0;entryDy=0;" edge="1" parent="1" source="uy9zVQAJtBAQSSv0pygf-10" target="ZxpX5ldxoqdNCNuCcYS1-2">
          <mxGeometry relative="1" as="geometry" />
        </mxCell>
        <mxCell id="ZxpX5ldxoqdNCNuCcYS1-12" style="edgeStyle=orthogonalEdgeStyle;rounded=0;orthogonalLoop=1;jettySize=auto;html=1;entryX=0.25;entryY=1;entryDx=0;entryDy=0;" edge="1" parent="1" source="ZxpX5ldxoqdNCNuCcYS1-7" target="uy9zVQAJtBAQSSv0pygf-9">
          <mxGeometry relative="1" as="geometry" />
        </mxCell>
        <mxCell id="ZxpX5ldxoqdNCNuCcYS1-7" value="Asiento" style="swimlane;fontStyle=1;align=center;verticalAlign=top;childLayout=stackLayout;horizontal=1;startSize=26;horizontalStack=0;resizeParent=1;resizeParentMax=0;resizeLast=0;collapsible=1;marginBottom=0;whiteSpace=wrap;html=1;" vertex="1" parent="1">
          <mxGeometry x="182.5" y="250" width="160" height="86" as="geometry" />
        </mxCell>
        <mxCell id="ZxpX5ldxoqdNCNuCcYS1-8" value="- numero:Integer" style="text;strokeColor=none;fillColor=none;align=left;verticalAlign=top;spacingLeft=4;spacingRight=4;overflow=hidden;rotatable=0;points=[[0,0.5],[1,0.5]];portConstraint=eastwest;whiteSpace=wrap;html=1;" vertex="1" parent="ZxpX5ldxoqdNCNuCcYS1-7">
          <mxGeometry y="26" width="160" height="26" as="geometry" />
        </mxCell>
        <mxCell id="ZxpX5ldxoqdNCNuCcYS1-9" value="" style="line;strokeWidth=1;fillColor=none;align=left;verticalAlign=middle;spacingTop=-1;spacingLeft=3;spacingRight=3;rotatable=0;labelPosition=right;points=[];portConstraint=eastwest;strokeColor=inherit;" vertex="1" parent="ZxpX5ldxoqdNCNuCcYS1-7">
          <mxGeometry y="52" width="160" height="8" as="geometry" />
        </mxCell>
        <mxCell id="ZxpX5ldxoqdNCNuCcYS1-10" value="-" style="text;strokeColor=none;fillColor=none;align=left;verticalAlign=top;spacingLeft=4;spacingRight=4;overflow=hidden;rotatable=0;points=[[0,0.5],[1,0.5]];portConstraint=eastwest;whiteSpace=wrap;html=1;" vertex="1" parent="ZxpX5ldxoqdNCNuCcYS1-7">
          <mxGeometry y="60" width="160" height="26" as="geometry" />
        </mxCell>
        <mxCell id="ZxpX5ldxoqdNCNuCcYS1-11" style="edgeStyle=orthogonalEdgeStyle;rounded=0;orthogonalLoop=1;jettySize=auto;html=1;entryX=0.25;entryY=0;entryDx=0;entryDy=0;" edge="1" parent="1" source="uy9zVQAJtBAQSSv0pygf-8" target="ZxpX5ldxoqdNCNuCcYS1-7">
          <mxGeometry relative="1" as="geometry" />
        </mxCell>
        <mxCell id="ZxpX5ldxoqdNCNuCcYS1-13" value="asiento" style="text;html=1;align=center;verticalAlign=middle;resizable=0;points=[];autosize=1;strokeColor=none;fillColor=none;" vertex="1" parent="1">
          <mxGeometry x="215" y="208" width="60" height="30" as="geometry" />
        </mxCell>
        <mxCell id="ZxpX5ldxoqdNCNuCcYS1-14" value="tramo" style="text;html=1;align=center;verticalAlign=middle;resizable=0;points=[];autosize=1;strokeColor=none;fillColor=none;" vertex="1" parent="1">
          <mxGeometry x="365" y="288" width="50" height="30" as="geometry" />
        </mxCell>
        <mxCell id="ZxpX5ldxoqdNCNuCcYS1-15" value="vuelo" style="text;html=1;align=center;verticalAlign=middle;resizable=0;points=[];autosize=1;strokeColor=none;fillColor=none;" vertex="1" parent="1">
          <mxGeometry x="560" y="160" width="50" height="30" as="geometry" />
        </mxCell>
        <mxCell id="QQD-NN-1s3MtY13H2io7-1" value="pasajero" style="text;html=1;align=center;verticalAlign=middle;resizable=0;points=[];autosize=1;strokeColor=none;fillColor=none;" vertex="1" parent="1">
          <mxGeometry x="10" y="258" width="70" height="30" as="geometry" />
        </mxCell>
      </root>
    </mxGraphModel>
  </diagram>
  <diagram id="0uuWxEM6Gpo3BkwqfQqj" name="B">
    <mxGraphModel dx="2166" dy="1876" grid="1" gridSize="10" guides="1" tooltips="1" connect="1" arrows="1" fold="1" page="1" pageScale="1" pageWidth="827" pageHeight="1169" math="0" shadow="0">
      <root>
        <mxCell id="0" />
        <mxCell id="1" parent="0" />
        <mxCell id="6jp4m1jd5tKVHO314jTl-37" value="Paquete" style="swimlane;fontStyle=1;align=center;verticalAlign=top;childLayout=stackLayout;horizontal=1;startSize=26;horizontalStack=0;resizeParent=1;resizeParentMax=0;resizeLast=0;collapsible=1;marginBottom=0;whiteSpace=wrap;html=1;" parent="1" vertex="1">
          <mxGeometry x="640" y="-110" width="280" height="150" as="geometry" />
        </mxCell>
        <mxCell id="6jp4m1jd5tKVHO314jTl-38" value="- ancho:Real&lt;br&gt;- alto:Real&lt;br&gt;- largo:Real&lt;br&gt;- peso:Real" style="text;strokeColor=none;fillColor=none;align=left;verticalAlign=top;spacingLeft=4;spacingRight=4;overflow=hidden;rotatable=0;points=[[0,0.5],[1,0.5]];portConstraint=eastwest;whiteSpace=wrap;html=1;" parent="6jp4m1jd5tKVHO314jTl-37" vertex="1">
          <mxGeometry y="26" width="280" height="64" as="geometry" />
        </mxCell>
        <mxCell id="6jp4m1jd5tKVHO314jTl-39" value="" style="line;strokeWidth=1;fillColor=none;align=left;verticalAlign=middle;spacingTop=-1;spacingLeft=3;spacingRight=3;rotatable=0;labelPosition=right;points=[];portConstraint=eastwest;strokeColor=inherit;" parent="6jp4m1jd5tKVHO314jTl-37" vertex="1">
          <mxGeometry y="90" width="280" height="8" as="geometry" />
        </mxCell>
        <mxCell id="6jp4m1jd5tKVHO314jTl-40" value="+ &amp;lt;&amp;lt;create&amp;gt;&amp;gt; (ancho:Real, alto:Real, largo:Real, peso:Real)&lt;br&gt;+ costoServicio():Real" style="text;strokeColor=none;fillColor=none;align=left;verticalAlign=top;spacingLeft=4;spacingRight=4;overflow=hidden;rotatable=0;points=[[0,0.5],[1,0.5]];portConstraint=eastwest;whiteSpace=wrap;html=1;" parent="6jp4m1jd5tKVHO314jTl-37" vertex="1">
          <mxGeometry y="98" width="280" height="52" as="geometry" />
        </mxCell>
        <mxCell id="RRgq5MxEYgevT9lTGhDh-1" value="Pasajero" style="swimlane;fontStyle=1;align=center;verticalAlign=top;childLayout=stackLayout;horizontal=1;startSize=26;horizontalStack=0;resizeParent=1;resizeParentMax=0;resizeLast=0;collapsible=1;marginBottom=0;whiteSpace=wrap;html=1;" vertex="1" parent="1">
          <mxGeometry x="-10" y="318" width="170" height="110" as="geometry" />
        </mxCell>
        <mxCell id="RRgq5MxEYgevT9lTGhDh-2" value="- nombre:String&lt;br&gt;- dni:Integer" style="text;strokeColor=none;fillColor=none;align=left;verticalAlign=top;spacingLeft=4;spacingRight=4;overflow=hidden;rotatable=0;points=[[0,0.5],[1,0.5]];portConstraint=eastwest;whiteSpace=wrap;html=1;" vertex="1" parent="RRgq5MxEYgevT9lTGhDh-1">
          <mxGeometry y="26" width="170" height="34" as="geometry" />
        </mxCell>
        <mxCell id="RRgq5MxEYgevT9lTGhDh-3" value="" style="line;strokeWidth=1;fillColor=none;align=left;verticalAlign=middle;spacingTop=-1;spacingLeft=3;spacingRight=3;rotatable=0;labelPosition=right;points=[];portConstraint=eastwest;strokeColor=inherit;" vertex="1" parent="RRgq5MxEYgevT9lTGhDh-1">
          <mxGeometry y="60" width="170" height="8" as="geometry" />
        </mxCell>
        <mxCell id="RRgq5MxEYgevT9lTGhDh-4" value="- &amp;lt;&amp;lt;create&amp;gt;&amp;gt; (nombre:String, dni:Integer)" style="text;strokeColor=none;fillColor=none;align=left;verticalAlign=top;spacingLeft=4;spacingRight=4;overflow=hidden;rotatable=0;points=[[0,0.5],[1,0.5]];portConstraint=eastwest;whiteSpace=wrap;html=1;" vertex="1" parent="RRgq5MxEYgevT9lTGhDh-1">
          <mxGeometry y="68" width="170" height="42" as="geometry" />
        </mxCell>
        <mxCell id="RRgq5MxEYgevT9lTGhDh-5" style="edgeStyle=orthogonalEdgeStyle;rounded=0;orthogonalLoop=1;jettySize=auto;html=1;entryX=-0.004;entryY=0.298;entryDx=0;entryDy=0;entryPerimeter=0;" edge="1" parent="1" source="RRgq5MxEYgevT9lTGhDh-6" target="RRgq5MxEYgevT9lTGhDh-12">
          <mxGeometry relative="1" as="geometry">
            <mxPoint x="320" y="255" as="targetPoint" />
            <Array as="points" />
          </mxGeometry>
        </mxCell>
        <mxCell id="RRgq5MxEYgevT9lTGhDh-6" value="Pasaje" style="swimlane;fontStyle=1;align=center;verticalAlign=top;childLayout=stackLayout;horizontal=1;startSize=26;horizontalStack=0;resizeParent=1;resizeParentMax=0;resizeLast=0;collapsible=1;marginBottom=0;whiteSpace=wrap;html=1;" vertex="1" parent="1">
          <mxGeometry x="-10" y="123" width="170" height="110" as="geometry" />
        </mxCell>
        <mxCell id="RRgq5MxEYgevT9lTGhDh-7" value="- rateDiario: Real[*]" style="text;strokeColor=none;fillColor=none;align=left;verticalAlign=top;spacingLeft=4;spacingRight=4;overflow=hidden;rotatable=0;points=[[0,0.5],[1,0.5]];portConstraint=eastwest;whiteSpace=wrap;html=1;" vertex="1" parent="RRgq5MxEYgevT9lTGhDh-6">
          <mxGeometry y="26" width="170" height="24" as="geometry" />
        </mxCell>
        <mxCell id="RRgq5MxEYgevT9lTGhDh-8" value="" style="line;strokeWidth=1;fillColor=none;align=left;verticalAlign=middle;spacingTop=-1;spacingLeft=3;spacingRight=3;rotatable=0;labelPosition=right;points=[];portConstraint=eastwest;strokeColor=inherit;" vertex="1" parent="RRgq5MxEYgevT9lTGhDh-6">
          <mxGeometry y="50" width="170" height="8" as="geometry" />
        </mxCell>
        <mxCell id="RRgq5MxEYgevT9lTGhDh-9" value="+ rateRoundTrip():Real&lt;br&gt;+ rateMultiHop():Real&lt;div&gt;+ costo():Real&lt;/div&gt;" style="text;strokeColor=none;fillColor=none;align=left;verticalAlign=top;spacingLeft=4;spacingRight=4;overflow=hidden;rotatable=0;points=[[0,0.5],[1,0.5]];portConstraint=eastwest;whiteSpace=wrap;html=1;" vertex="1" parent="RRgq5MxEYgevT9lTGhDh-6">
          <mxGeometry y="58" width="170" height="52" as="geometry" />
        </mxCell>
        <mxCell id="RRgq5MxEYgevT9lTGhDh-10" style="edgeStyle=orthogonalEdgeStyle;rounded=0;orthogonalLoop=1;jettySize=auto;html=1;exitX=0.5;exitY=1;exitDx=0;exitDy=0;entryX=0.5;entryY=0;entryDx=0;entryDy=0;" edge="1" parent="1" source="RRgq5MxEYgevT9lTGhDh-11" target="RRgq5MxEYgevT9lTGhDh-17">
          <mxGeometry relative="1" as="geometry" />
        </mxCell>
        <mxCell id="RRgq5MxEYgevT9lTGhDh-11" value="Tramo" style="swimlane;fontStyle=1;align=center;verticalAlign=top;childLayout=stackLayout;horizontal=1;startSize=26;horizontalStack=0;resizeParent=1;resizeParentMax=0;resizeLast=0;collapsible=1;marginBottom=0;whiteSpace=wrap;html=1;" vertex="1" parent="1">
          <mxGeometry x="380" y="160" width="160" height="100" as="geometry" />
        </mxCell>
        <mxCell id="RRgq5MxEYgevT9lTGhDh-12" value="- dia:Days" style="text;strokeColor=none;fillColor=none;align=left;verticalAlign=top;spacingLeft=4;spacingRight=4;overflow=hidden;rotatable=0;points=[[0,0.5],[1,0.5]];portConstraint=eastwest;whiteSpace=wrap;html=1;" vertex="1" parent="RRgq5MxEYgevT9lTGhDh-11">
          <mxGeometry y="26" width="160" height="24" as="geometry" />
        </mxCell>
        <mxCell id="RRgq5MxEYgevT9lTGhDh-13" value="" style="line;strokeWidth=1;fillColor=none;align=left;verticalAlign=middle;spacingTop=-1;spacingLeft=3;spacingRight=3;rotatable=0;labelPosition=right;points=[];portConstraint=eastwest;strokeColor=inherit;" vertex="1" parent="RRgq5MxEYgevT9lTGhDh-11">
          <mxGeometry y="50" width="160" height="8" as="geometry" />
        </mxCell>
        <mxCell id="RRgq5MxEYgevT9lTGhDh-14" value="+ duracion():Time&lt;br&gt;+ horaLlegada():Hour" style="text;strokeColor=none;fillColor=none;align=left;verticalAlign=top;spacingLeft=4;spacingRight=4;overflow=hidden;rotatable=0;points=[[0,0.5],[1,0.5]];portConstraint=eastwest;whiteSpace=wrap;html=1;" vertex="1" parent="RRgq5MxEYgevT9lTGhDh-11">
          <mxGeometry y="58" width="160" height="42" as="geometry" />
        </mxCell>
        <mxCell id="RRgq5MxEYgevT9lTGhDh-15" value="" style="endArrow=classic;html=1;rounded=0;entryX=0.5;entryY=0;entryDx=0;entryDy=0;exitX=0.5;exitY=1;exitDx=0;exitDy=0;" edge="1" parent="1" source="RRgq5MxEYgevT9lTGhDh-6" target="RRgq5MxEYgevT9lTGhDh-1">
          <mxGeometry width="50" height="50" relative="1" as="geometry">
            <mxPoint x="160" y="310" as="sourcePoint" />
            <mxPoint x="300" y="450" as="targetPoint" />
          </mxGeometry>
        </mxCell>
        <mxCell id="RRgq5MxEYgevT9lTGhDh-16" value="1..*&lt;br&gt;tramos" style="text;html=1;align=center;verticalAlign=middle;resizable=0;points=[];autosize=1;strokeColor=none;fillColor=none;" vertex="1" parent="1">
          <mxGeometry x="210" y="140" width="60" height="40" as="geometry" />
        </mxCell>
        <mxCell id="RRgq5MxEYgevT9lTGhDh-17" value="&lt;p style=&quot;margin:0px;margin-top:4px;text-align:center;&quot;&gt;&lt;i&gt;&amp;lt;&amp;lt;Abstract&amp;gt;&amp;gt;&lt;/i&gt;&lt;br&gt;&lt;b&gt;Pilatus PC-12&lt;/b&gt;&lt;/p&gt;&lt;hr size=&quot;1&quot;&gt;&lt;p style=&quot;margin:0px;margin-left:4px;&quot;&gt;- capacidadCarga:Integer&lt;/p&gt;&lt;p style=&quot;margin:0px;margin-left:4px;&quot;&gt;- asientos:Integer&lt;/p&gt;&lt;hr size=&quot;1&quot;&gt;&lt;p style=&quot;margin:0px;margin-left:4px;&quot;&gt;+ &amp;lt;&amp;lt;create&amp;gt;&amp;gt; (capacidadCarga:Integer, asientos:Integer)&lt;/p&gt;" style="verticalAlign=top;align=left;overflow=fill;fontSize=12;fontFamily=Helvetica;html=1;whiteSpace=wrap;" vertex="1" parent="1">
          <mxGeometry x="342.5" y="370" width="235" height="120" as="geometry" />
        </mxCell>
        <mxCell id="RRgq5MxEYgevT9lTGhDh-18" style="edgeStyle=orthogonalEdgeStyle;rounded=0;orthogonalLoop=1;jettySize=auto;html=1;entryX=0.5;entryY=1;entryDx=0;entryDy=0;" edge="1" parent="1" source="RRgq5MxEYgevT9lTGhDh-19" target="RRgq5MxEYgevT9lTGhDh-17">
          <mxGeometry relative="1" as="geometry">
            <Array as="points">
              <mxPoint x="345" y="510" />
              <mxPoint x="460" y="510" />
            </Array>
          </mxGeometry>
        </mxCell>
        <mxCell id="RRgq5MxEYgevT9lTGhDh-19" value="Estandar" style="swimlane;fontStyle=1;align=center;verticalAlign=top;childLayout=stackLayout;horizontal=1;startSize=26;horizontalStack=0;resizeParent=1;resizeParentMax=0;resizeLast=0;collapsible=1;marginBottom=0;whiteSpace=wrap;html=1;" vertex="1" parent="1">
          <mxGeometry x="265" y="520" width="160" height="84" as="geometry" />
        </mxCell>
        <mxCell id="RRgq5MxEYgevT9lTGhDh-20" value="-&amp;nbsp;" style="text;strokeColor=none;fillColor=none;align=left;verticalAlign=top;spacingLeft=4;spacingRight=4;overflow=hidden;rotatable=0;points=[[0,0.5],[1,0.5]];portConstraint=eastwest;whiteSpace=wrap;html=1;" vertex="1" parent="RRgq5MxEYgevT9lTGhDh-19">
          <mxGeometry y="26" width="160" height="24" as="geometry" />
        </mxCell>
        <mxCell id="RRgq5MxEYgevT9lTGhDh-21" value="" style="line;strokeWidth=1;fillColor=none;align=left;verticalAlign=middle;spacingTop=-1;spacingLeft=3;spacingRight=3;rotatable=0;labelPosition=right;points=[];portConstraint=eastwest;strokeColor=inherit;" vertex="1" parent="RRgq5MxEYgevT9lTGhDh-19">
          <mxGeometry y="50" width="160" height="8" as="geometry" />
        </mxCell>
        <mxCell id="RRgq5MxEYgevT9lTGhDh-22" value="-" style="text;strokeColor=none;fillColor=none;align=left;verticalAlign=top;spacingLeft=4;spacingRight=4;overflow=hidden;rotatable=0;points=[[0,0.5],[1,0.5]];portConstraint=eastwest;whiteSpace=wrap;html=1;" vertex="1" parent="RRgq5MxEYgevT9lTGhDh-19">
          <mxGeometry y="58" width="160" height="26" as="geometry" />
        </mxCell>
        <mxCell id="RRgq5MxEYgevT9lTGhDh-23" style="edgeStyle=orthogonalEdgeStyle;rounded=0;orthogonalLoop=1;jettySize=auto;html=1;exitX=0.5;exitY=0;exitDx=0;exitDy=0;" edge="1" parent="1" source="RRgq5MxEYgevT9lTGhDh-24">
          <mxGeometry relative="1" as="geometry">
            <mxPoint x="460" y="490" as="targetPoint" />
            <Array as="points">
              <mxPoint x="575" y="510" />
              <mxPoint x="460" y="510" />
            </Array>
          </mxGeometry>
        </mxCell>
        <mxCell id="RRgq5MxEYgevT9lTGhDh-24" value="Ejecutiva" style="swimlane;fontStyle=1;align=center;verticalAlign=top;childLayout=stackLayout;horizontal=1;startSize=26;horizontalStack=0;resizeParent=1;resizeParentMax=0;resizeLast=0;collapsible=1;marginBottom=0;whiteSpace=wrap;html=1;" vertex="1" parent="1">
          <mxGeometry x="495" y="520" width="160" height="84" as="geometry" />
        </mxCell>
        <mxCell id="RRgq5MxEYgevT9lTGhDh-25" value="-&amp;nbsp;" style="text;strokeColor=none;fillColor=none;align=left;verticalAlign=top;spacingLeft=4;spacingRight=4;overflow=hidden;rotatable=0;points=[[0,0.5],[1,0.5]];portConstraint=eastwest;whiteSpace=wrap;html=1;" vertex="1" parent="RRgq5MxEYgevT9lTGhDh-24">
          <mxGeometry y="26" width="160" height="24" as="geometry" />
        </mxCell>
        <mxCell id="RRgq5MxEYgevT9lTGhDh-26" value="" style="line;strokeWidth=1;fillColor=none;align=left;verticalAlign=middle;spacingTop=-1;spacingLeft=3;spacingRight=3;rotatable=0;labelPosition=right;points=[];portConstraint=eastwest;strokeColor=inherit;" vertex="1" parent="RRgq5MxEYgevT9lTGhDh-24">
          <mxGeometry y="50" width="160" height="8" as="geometry" />
        </mxCell>
        <mxCell id="RRgq5MxEYgevT9lTGhDh-27" value="-" style="text;strokeColor=none;fillColor=none;align=left;verticalAlign=top;spacingLeft=4;spacingRight=4;overflow=hidden;rotatable=0;points=[[0,0.5],[1,0.5]];portConstraint=eastwest;whiteSpace=wrap;html=1;" vertex="1" parent="RRgq5MxEYgevT9lTGhDh-24">
          <mxGeometry y="58" width="160" height="26" as="geometry" />
        </mxCell>
        <mxCell id="RRgq5MxEYgevT9lTGhDh-28" value="avion" style="text;html=1;align=center;verticalAlign=middle;resizable=0;points=[];autosize=1;strokeColor=none;fillColor=none;" vertex="1" parent="1">
          <mxGeometry x="455" y="318" width="50" height="30" as="geometry" />
        </mxCell>
        <mxCell id="RRgq5MxEYgevT9lTGhDh-29" value="Empresa" style="swimlane;fontStyle=1;align=center;verticalAlign=top;childLayout=stackLayout;horizontal=1;startSize=26;horizontalStack=0;resizeParent=1;resizeParentMax=0;resizeLast=0;collapsible=1;marginBottom=0;whiteSpace=wrap;html=1;" vertex="1" parent="1">
          <mxGeometry x="270" y="-170" width="240" height="210" as="geometry" />
        </mxCell>
        <mxCell id="RRgq5MxEYgevT9lTGhDh-30" value="-" style="text;strokeColor=none;fillColor=none;align=left;verticalAlign=top;spacingLeft=4;spacingRight=4;overflow=hidden;rotatable=0;points=[[0,0.5],[1,0.5]];portConstraint=eastwest;whiteSpace=wrap;html=1;" vertex="1" parent="RRgq5MxEYgevT9lTGhDh-29">
          <mxGeometry y="26" width="240" height="26" as="geometry" />
        </mxCell>
        <mxCell id="RRgq5MxEYgevT9lTGhDh-31" value="" style="line;strokeWidth=1;fillColor=none;align=left;verticalAlign=middle;spacingTop=-1;spacingLeft=3;spacingRight=3;rotatable=0;labelPosition=right;points=[];portConstraint=eastwest;strokeColor=inherit;" vertex="1" parent="RRgq5MxEYgevT9lTGhDh-29">
          <mxGeometry y="52" width="240" height="8" as="geometry" />
        </mxCell>
        <mxCell id="RRgq5MxEYgevT9lTGhDh-32" value="+ promedioOcupacion:Real[*]&lt;br&gt;+ horasVoladasPorAvionEntre(inicio:Date, fin:Date)&lt;br&gt;+ horasVoladasPorAvionTotal():Time[*]&lt;br&gt;+ montoTotalDescuentos():Real&lt;br&gt;+ eficienciaTarifas():Real&lt;div&gt;+ emitirPasaje(pasajero:Pasajero)&lt;br&gt;+ cancelar(pasaje:Pasaje)&lt;br&gt;+ modificar(pasaje:Pasaje)&lt;br&gt;&lt;/div&gt;&lt;div&gt;+ enviar(paquete:Paquete)&lt;/div&gt;" style="text;strokeColor=none;fillColor=none;align=left;verticalAlign=top;spacingLeft=4;spacingRight=4;overflow=hidden;rotatable=0;points=[[0,0.5],[1,0.5]];portConstraint=eastwest;whiteSpace=wrap;html=1;" vertex="1" parent="RRgq5MxEYgevT9lTGhDh-29">
          <mxGeometry y="60" width="240" height="150" as="geometry" />
        </mxCell>
        <mxCell id="RRgq5MxEYgevT9lTGhDh-33" style="edgeStyle=orthogonalEdgeStyle;rounded=0;orthogonalLoop=1;jettySize=auto;html=1;entryX=0.5;entryY=0;entryDx=0;entryDy=0;" edge="1" parent="1" source="RRgq5MxEYgevT9lTGhDh-32" target="RRgq5MxEYgevT9lTGhDh-6">
          <mxGeometry relative="1" as="geometry" />
        </mxCell>
        <mxCell id="RRgq5MxEYgevT9lTGhDh-36" value="0..*&lt;br&gt;pasajes" style="text;html=1;align=center;verticalAlign=middle;resizable=0;points=[];autosize=1;strokeColor=none;fillColor=none;" vertex="1" parent="1">
          <mxGeometry x="160" y="-72" width="60" height="40" as="geometry" />
        </mxCell>
        <mxCell id="RRgq5MxEYgevT9lTGhDh-37" value="Vuelo" style="swimlane;fontStyle=1;align=center;verticalAlign=top;childLayout=stackLayout;horizontal=1;startSize=26;horizontalStack=0;resizeParent=1;resizeParentMax=0;resizeLast=0;collapsible=1;marginBottom=0;whiteSpace=wrap;html=1;" vertex="1" parent="1">
          <mxGeometry x="740" y="218" width="160" height="140" as="geometry" />
        </mxCell>
        <mxCell id="RRgq5MxEYgevT9lTGhDh-38" value="- salidaReal:Hour&lt;br&gt;&lt;div&gt;- origen:String&lt;/div&gt;&lt;div&gt;- destino: String&lt;/div&gt;&lt;div&gt;- precio: Real&lt;/div&gt;" style="text;strokeColor=none;fillColor=none;align=left;verticalAlign=top;spacingLeft=4;spacingRight=4;overflow=hidden;rotatable=0;points=[[0,0.5],[1,0.5]];portConstraint=eastwest;whiteSpace=wrap;html=1;" vertex="1" parent="RRgq5MxEYgevT9lTGhDh-37">
          <mxGeometry y="26" width="160" height="64" as="geometry" />
        </mxCell>
        <mxCell id="RRgq5MxEYgevT9lTGhDh-39" value="" style="line;strokeWidth=1;fillColor=none;align=left;verticalAlign=middle;spacingTop=-1;spacingLeft=3;spacingRight=3;rotatable=0;labelPosition=right;points=[];portConstraint=eastwest;strokeColor=inherit;" vertex="1" parent="RRgq5MxEYgevT9lTGhDh-37">
          <mxGeometry y="90" width="160" height="8" as="geometry" />
        </mxCell>
        <mxCell id="RRgq5MxEYgevT9lTGhDh-40" value="+ duracion():Time&lt;br&gt;+ horaLlegada():Hour" style="text;strokeColor=none;fillColor=none;align=left;verticalAlign=top;spacingLeft=4;spacingRight=4;overflow=hidden;rotatable=0;points=[[0,0.5],[1,0.5]];portConstraint=eastwest;whiteSpace=wrap;html=1;" vertex="1" parent="RRgq5MxEYgevT9lTGhDh-37">
          <mxGeometry y="98" width="160" height="42" as="geometry" />
        </mxCell>
        <mxCell id="RRgq5MxEYgevT9lTGhDh-41" style="edgeStyle=orthogonalEdgeStyle;rounded=0;orthogonalLoop=1;jettySize=auto;html=1;entryX=0;entryY=0.5;entryDx=0;entryDy=0;" edge="1" parent="1" source="RRgq5MxEYgevT9lTGhDh-12" target="RRgq5MxEYgevT9lTGhDh-38">
          <mxGeometry relative="1" as="geometry" />
        </mxCell>
        <mxCell id="RRgq5MxEYgevT9lTGhDh-42" style="edgeStyle=orthogonalEdgeStyle;rounded=0;orthogonalLoop=1;jettySize=auto;html=1;entryX=0.25;entryY=1;entryDx=0;entryDy=0;" edge="1" parent="1" source="RRgq5MxEYgevT9lTGhDh-43" target="RRgq5MxEYgevT9lTGhDh-11">
          <mxGeometry relative="1" as="geometry" />
        </mxCell>
        <mxCell id="RRgq5MxEYgevT9lTGhDh-43" value="Asiento" style="swimlane;fontStyle=1;align=center;verticalAlign=top;childLayout=stackLayout;horizontal=1;startSize=26;horizontalStack=0;resizeParent=1;resizeParentMax=0;resizeLast=0;collapsible=1;marginBottom=0;whiteSpace=wrap;html=1;" vertex="1" parent="1">
          <mxGeometry x="182.5" y="250" width="160" height="86" as="geometry" />
        </mxCell>
        <mxCell id="RRgq5MxEYgevT9lTGhDh-44" value="- numero:Integer" style="text;strokeColor=none;fillColor=none;align=left;verticalAlign=top;spacingLeft=4;spacingRight=4;overflow=hidden;rotatable=0;points=[[0,0.5],[1,0.5]];portConstraint=eastwest;whiteSpace=wrap;html=1;" vertex="1" parent="RRgq5MxEYgevT9lTGhDh-43">
          <mxGeometry y="26" width="160" height="26" as="geometry" />
        </mxCell>
        <mxCell id="RRgq5MxEYgevT9lTGhDh-45" value="" style="line;strokeWidth=1;fillColor=none;align=left;verticalAlign=middle;spacingTop=-1;spacingLeft=3;spacingRight=3;rotatable=0;labelPosition=right;points=[];portConstraint=eastwest;strokeColor=inherit;" vertex="1" parent="RRgq5MxEYgevT9lTGhDh-43">
          <mxGeometry y="52" width="160" height="8" as="geometry" />
        </mxCell>
        <mxCell id="RRgq5MxEYgevT9lTGhDh-46" value="-" style="text;strokeColor=none;fillColor=none;align=left;verticalAlign=top;spacingLeft=4;spacingRight=4;overflow=hidden;rotatable=0;points=[[0,0.5],[1,0.5]];portConstraint=eastwest;whiteSpace=wrap;html=1;" vertex="1" parent="RRgq5MxEYgevT9lTGhDh-43">
          <mxGeometry y="60" width="160" height="26" as="geometry" />
        </mxCell>
        <mxCell id="RRgq5MxEYgevT9lTGhDh-47" style="edgeStyle=orthogonalEdgeStyle;rounded=0;orthogonalLoop=1;jettySize=auto;html=1;entryX=0.25;entryY=0;entryDx=0;entryDy=0;" edge="1" parent="1" source="RRgq5MxEYgevT9lTGhDh-9" target="RRgq5MxEYgevT9lTGhDh-43">
          <mxGeometry relative="1" as="geometry" />
        </mxCell>
        <mxCell id="RRgq5MxEYgevT9lTGhDh-48" value="asiento" style="text;html=1;align=center;verticalAlign=middle;resizable=0;points=[];autosize=1;strokeColor=none;fillColor=none;" vertex="1" parent="1">
          <mxGeometry x="215" y="208" width="60" height="30" as="geometry" />
        </mxCell>
        <mxCell id="RRgq5MxEYgevT9lTGhDh-49" value="tramo" style="text;html=1;align=center;verticalAlign=middle;resizable=0;points=[];autosize=1;strokeColor=none;fillColor=none;" vertex="1" parent="1">
          <mxGeometry x="365" y="288" width="50" height="30" as="geometry" />
        </mxCell>
        <mxCell id="RRgq5MxEYgevT9lTGhDh-50" value="vuelo" style="text;html=1;align=center;verticalAlign=middle;resizable=0;points=[];autosize=1;strokeColor=none;fillColor=none;" vertex="1" parent="1">
          <mxGeometry x="550" y="195" width="50" height="30" as="geometry" />
        </mxCell>
        <mxCell id="RRgq5MxEYgevT9lTGhDh-52" style="edgeStyle=orthogonalEdgeStyle;rounded=0;orthogonalLoop=1;jettySize=auto;html=1;entryX=1;entryY=0.5;entryDx=0;entryDy=0;" edge="1" parent="1" source="RRgq5MxEYgevT9lTGhDh-30" target="RRgq5MxEYgevT9lTGhDh-38">
          <mxGeometry relative="1" as="geometry">
            <Array as="points">
              <mxPoint x="950" y="-131" />
              <mxPoint x="950" y="276" />
            </Array>
          </mxGeometry>
        </mxCell>
        <mxCell id="RRgq5MxEYgevT9lTGhDh-53" value="0..*&lt;div&gt;vuelos&lt;/div&gt;" style="text;html=1;align=center;verticalAlign=middle;resizable=0;points=[];autosize=1;strokeColor=none;fillColor=none;" vertex="1" parent="1">
          <mxGeometry x="595" y="-170" width="60" height="40" as="geometry" />
        </mxCell>
        <mxCell id="RRgq5MxEYgevT9lTGhDh-55" value="Envio" style="swimlane;fontStyle=1;align=center;verticalAlign=top;childLayout=stackLayout;horizontal=1;startSize=26;horizontalStack=0;resizeParent=1;resizeParentMax=0;resizeLast=0;collapsible=1;marginBottom=0;whiteSpace=wrap;html=1;" vertex="1" parent="1">
          <mxGeometry x="560" y="74" width="160" height="86" as="geometry" />
        </mxCell>
        <mxCell id="RRgq5MxEYgevT9lTGhDh-56" value="-" style="text;strokeColor=none;fillColor=none;align=left;verticalAlign=top;spacingLeft=4;spacingRight=4;overflow=hidden;rotatable=0;points=[[0,0.5],[1,0.5]];portConstraint=eastwest;whiteSpace=wrap;html=1;" vertex="1" parent="RRgq5MxEYgevT9lTGhDh-55">
          <mxGeometry y="26" width="160" height="26" as="geometry" />
        </mxCell>
        <mxCell id="RRgq5MxEYgevT9lTGhDh-57" value="" style="line;strokeWidth=1;fillColor=none;align=left;verticalAlign=middle;spacingTop=-1;spacingLeft=3;spacingRight=3;rotatable=0;labelPosition=right;points=[];portConstraint=eastwest;strokeColor=inherit;" vertex="1" parent="RRgq5MxEYgevT9lTGhDh-55">
          <mxGeometry y="52" width="160" height="8" as="geometry" />
        </mxCell>
        <mxCell id="RRgq5MxEYgevT9lTGhDh-58" value="-" style="text;strokeColor=none;fillColor=none;align=left;verticalAlign=top;spacingLeft=4;spacingRight=4;overflow=hidden;rotatable=0;points=[[0,0.5],[1,0.5]];portConstraint=eastwest;whiteSpace=wrap;html=1;" vertex="1" parent="RRgq5MxEYgevT9lTGhDh-55">
          <mxGeometry y="60" width="160" height="26" as="geometry" />
        </mxCell>
        <mxCell id="RRgq5MxEYgevT9lTGhDh-59" value="" style="endArrow=classic;html=1;rounded=0;entryX=0;entryY=0.5;entryDx=0;entryDy=0;exitX=0.25;exitY=0;exitDx=0;exitDy=0;edgeStyle=orthogonalEdgeStyle;" edge="1" parent="1" source="RRgq5MxEYgevT9lTGhDh-55" target="6jp4m1jd5tKVHO314jTl-40">
          <mxGeometry width="50" height="50" relative="1" as="geometry">
            <mxPoint x="340" y="260" as="sourcePoint" />
            <mxPoint x="390" y="210" as="targetPoint" />
          </mxGeometry>
        </mxCell>
        <mxCell id="RRgq5MxEYgevT9lTGhDh-61" style="edgeStyle=orthogonalEdgeStyle;rounded=0;orthogonalLoop=1;jettySize=auto;html=1;entryX=0.5;entryY=0;entryDx=0;entryDy=0;" edge="1" parent="1" source="RRgq5MxEYgevT9lTGhDh-56" target="RRgq5MxEYgevT9lTGhDh-11">
          <mxGeometry relative="1" as="geometry" />
        </mxCell>
        <mxCell id="znl2L_jJMbWJiXOXGnox-1" value="pasajero" style="text;html=1;align=center;verticalAlign=middle;resizable=0;points=[];autosize=1;strokeColor=none;fillColor=none;" vertex="1" parent="1">
          <mxGeometry x="15" y="258" width="70" height="30" as="geometry" />
        </mxCell>
        <mxCell id="znl2L_jJMbWJiXOXGnox-2" value="paquete" style="text;html=1;align=center;verticalAlign=middle;resizable=0;points=[];autosize=1;strokeColor=none;fillColor=none;" vertex="1" parent="1">
          <mxGeometry x="540" y="50" width="70" height="30" as="geometry" />
        </mxCell>
        <mxCell id="znl2L_jJMbWJiXOXGnox-3" value="tramo" style="text;html=1;align=center;verticalAlign=middle;resizable=0;points=[];autosize=1;strokeColor=none;fillColor=none;" vertex="1" parent="1">
          <mxGeometry x="465" y="88" width="50" height="30" as="geometry" />
        </mxCell>
      </root>
    </mxGraphModel>
  </diagram>
  <diagram id="K4T7wpGtR8JNOdgZD_Cf" name="C">
    <mxGraphModel dx="2166" dy="1876" grid="1" gridSize="10" guides="1" tooltips="1" connect="1" arrows="1" fold="1" page="1" pageScale="1" pageWidth="827" pageHeight="1169" math="0" shadow="0">
      <root>
        <mxCell id="0" />
        <mxCell id="1" parent="0" />
        <mxCell id="XO7gvqgN6Dit9ECeOsk--1" value="Pasajero" style="swimlane;fontStyle=1;align=center;verticalAlign=top;childLayout=stackLayout;horizontal=1;startSize=26;horizontalStack=0;resizeParent=1;resizeParentMax=0;resizeLast=0;collapsible=1;marginBottom=0;whiteSpace=wrap;html=1;" vertex="1" parent="1">
          <mxGeometry x="-10" y="318" width="170" height="110" as="geometry" />
        </mxCell>
        <mxCell id="XO7gvqgN6Dit9ECeOsk--2" value="- nombre:String&lt;br&gt;- dni:Integer" style="text;strokeColor=none;fillColor=none;align=left;verticalAlign=top;spacingLeft=4;spacingRight=4;overflow=hidden;rotatable=0;points=[[0,0.5],[1,0.5]];portConstraint=eastwest;whiteSpace=wrap;html=1;" vertex="1" parent="XO7gvqgN6Dit9ECeOsk--1">
          <mxGeometry y="26" width="170" height="34" as="geometry" />
        </mxCell>
        <mxCell id="XO7gvqgN6Dit9ECeOsk--3" value="" style="line;strokeWidth=1;fillColor=none;align=left;verticalAlign=middle;spacingTop=-1;spacingLeft=3;spacingRight=3;rotatable=0;labelPosition=right;points=[];portConstraint=eastwest;strokeColor=inherit;" vertex="1" parent="XO7gvqgN6Dit9ECeOsk--1">
          <mxGeometry y="60" width="170" height="8" as="geometry" />
        </mxCell>
        <mxCell id="XO7gvqgN6Dit9ECeOsk--4" value="- &amp;lt;&amp;lt;create&amp;gt;&amp;gt; (nombre:String, dni:Integer)" style="text;strokeColor=none;fillColor=none;align=left;verticalAlign=top;spacingLeft=4;spacingRight=4;overflow=hidden;rotatable=0;points=[[0,0.5],[1,0.5]];portConstraint=eastwest;whiteSpace=wrap;html=1;" vertex="1" parent="XO7gvqgN6Dit9ECeOsk--1">
          <mxGeometry y="68" width="170" height="42" as="geometry" />
        </mxCell>
        <mxCell id="XO7gvqgN6Dit9ECeOsk--5" style="edgeStyle=orthogonalEdgeStyle;rounded=0;orthogonalLoop=1;jettySize=auto;html=1;entryX=-0.004;entryY=0.298;entryDx=0;entryDy=0;entryPerimeter=0;" edge="1" parent="1" source="XO7gvqgN6Dit9ECeOsk--6" target="XO7gvqgN6Dit9ECeOsk--12">
          <mxGeometry relative="1" as="geometry">
            <mxPoint x="320" y="255" as="targetPoint" />
            <Array as="points" />
          </mxGeometry>
        </mxCell>
        <mxCell id="XO7gvqgN6Dit9ECeOsk--6" value="Pasaje" style="swimlane;fontStyle=1;align=center;verticalAlign=top;childLayout=stackLayout;horizontal=1;startSize=26;horizontalStack=0;resizeParent=1;resizeParentMax=0;resizeLast=0;collapsible=1;marginBottom=0;whiteSpace=wrap;html=1;" vertex="1" parent="1">
          <mxGeometry x="-10" y="126" width="170" height="110" as="geometry" />
        </mxCell>
        <mxCell id="XO7gvqgN6Dit9ECeOsk--7" value="- rateDiario: Real[*]" style="text;strokeColor=none;fillColor=none;align=left;verticalAlign=top;spacingLeft=4;spacingRight=4;overflow=hidden;rotatable=0;points=[[0,0.5],[1,0.5]];portConstraint=eastwest;whiteSpace=wrap;html=1;" vertex="1" parent="XO7gvqgN6Dit9ECeOsk--6">
          <mxGeometry y="26" width="170" height="24" as="geometry" />
        </mxCell>
        <mxCell id="XO7gvqgN6Dit9ECeOsk--8" value="" style="line;strokeWidth=1;fillColor=none;align=left;verticalAlign=middle;spacingTop=-1;spacingLeft=3;spacingRight=3;rotatable=0;labelPosition=right;points=[];portConstraint=eastwest;strokeColor=inherit;" vertex="1" parent="XO7gvqgN6Dit9ECeOsk--6">
          <mxGeometry y="50" width="170" height="8" as="geometry" />
        </mxCell>
        <mxCell id="XO7gvqgN6Dit9ECeOsk--9" value="+ rateRoundTrip():Real&lt;br&gt;+ rateMultiHop():Real&lt;div&gt;+ costo():Real&lt;/div&gt;" style="text;strokeColor=none;fillColor=none;align=left;verticalAlign=top;spacingLeft=4;spacingRight=4;overflow=hidden;rotatable=0;points=[[0,0.5],[1,0.5]];portConstraint=eastwest;whiteSpace=wrap;html=1;" vertex="1" parent="XO7gvqgN6Dit9ECeOsk--6">
          <mxGeometry y="58" width="170" height="52" as="geometry" />
        </mxCell>
        <mxCell id="XO7gvqgN6Dit9ECeOsk--10" style="edgeStyle=orthogonalEdgeStyle;rounded=0;orthogonalLoop=1;jettySize=auto;html=1;exitX=0.5;exitY=1;exitDx=0;exitDy=0;entryX=0.5;entryY=0;entryDx=0;entryDy=0;" edge="1" parent="1" source="XO7gvqgN6Dit9ECeOsk--11" target="XO7gvqgN6Dit9ECeOsk--17">
          <mxGeometry relative="1" as="geometry" />
        </mxCell>
        <mxCell id="XO7gvqgN6Dit9ECeOsk--11" value="Tramo" style="swimlane;fontStyle=1;align=center;verticalAlign=top;childLayout=stackLayout;horizontal=1;startSize=26;horizontalStack=0;resizeParent=1;resizeParentMax=0;resizeLast=0;collapsible=1;marginBottom=0;whiteSpace=wrap;html=1;" vertex="1" parent="1">
          <mxGeometry x="380" y="145" width="160" height="110" as="geometry" />
        </mxCell>
        <mxCell id="XO7gvqgN6Dit9ECeOsk--12" value="- dia:Days&lt;div&gt;- precio:Real&lt;/div&gt;" style="text;strokeColor=none;fillColor=none;align=left;verticalAlign=top;spacingLeft=4;spacingRight=4;overflow=hidden;rotatable=0;points=[[0,0.5],[1,0.5]];portConstraint=eastwest;whiteSpace=wrap;html=1;" vertex="1" parent="XO7gvqgN6Dit9ECeOsk--11">
          <mxGeometry y="26" width="160" height="34" as="geometry" />
        </mxCell>
        <mxCell id="XO7gvqgN6Dit9ECeOsk--13" value="" style="line;strokeWidth=1;fillColor=none;align=left;verticalAlign=middle;spacingTop=-1;spacingLeft=3;spacingRight=3;rotatable=0;labelPosition=right;points=[];portConstraint=eastwest;strokeColor=inherit;" vertex="1" parent="XO7gvqgN6Dit9ECeOsk--11">
          <mxGeometry y="60" width="160" height="8" as="geometry" />
        </mxCell>
        <mxCell id="XO7gvqgN6Dit9ECeOsk--14" value="+ duracion():Time&lt;br&gt;+ horaLlegada():Hour" style="text;strokeColor=none;fillColor=none;align=left;verticalAlign=top;spacingLeft=4;spacingRight=4;overflow=hidden;rotatable=0;points=[[0,0.5],[1,0.5]];portConstraint=eastwest;whiteSpace=wrap;html=1;" vertex="1" parent="XO7gvqgN6Dit9ECeOsk--11">
          <mxGeometry y="68" width="160" height="42" as="geometry" />
        </mxCell>
        <mxCell id="XO7gvqgN6Dit9ECeOsk--15" value="" style="endArrow=classic;html=1;rounded=0;entryX=0.5;entryY=0;entryDx=0;entryDy=0;exitX=0.5;exitY=1;exitDx=0;exitDy=0;" edge="1" parent="1" source="XO7gvqgN6Dit9ECeOsk--6" target="XO7gvqgN6Dit9ECeOsk--1">
          <mxGeometry width="50" height="50" relative="1" as="geometry">
            <mxPoint x="160" y="310" as="sourcePoint" />
            <mxPoint x="300" y="450" as="targetPoint" />
          </mxGeometry>
        </mxCell>
        <mxCell id="XO7gvqgN6Dit9ECeOsk--16" value="1..*&lt;br&gt;tramos" style="text;html=1;align=center;verticalAlign=middle;resizable=0;points=[];autosize=1;strokeColor=none;fillColor=none;" vertex="1" parent="1">
          <mxGeometry x="210" y="145" width="60" height="40" as="geometry" />
        </mxCell>
        <mxCell id="XO7gvqgN6Dit9ECeOsk--17" value="&lt;p style=&quot;margin:0px;margin-top:4px;text-align:center;&quot;&gt;&lt;i&gt;&amp;lt;&amp;lt;Abstract&amp;gt;&amp;gt;&lt;/i&gt;&lt;br&gt;&lt;b&gt;Pilatus PC-12&lt;/b&gt;&lt;/p&gt;&lt;hr size=&quot;1&quot;&gt;&lt;p style=&quot;margin:0px;margin-left:4px;&quot;&gt;- capacidadCarga:Integer&lt;/p&gt;&lt;p style=&quot;margin:0px;margin-left:4px;&quot;&gt;- asientos:Integer&lt;/p&gt;&lt;hr size=&quot;1&quot;&gt;&lt;p style=&quot;margin:0px;margin-left:4px;&quot;&gt;+ &amp;lt;&amp;lt;create&amp;gt;&amp;gt; (capacidadCarga:Integer, asientos:Integer)&lt;/p&gt;" style="verticalAlign=top;align=left;overflow=fill;fontSize=12;fontFamily=Helvetica;html=1;whiteSpace=wrap;" vertex="1" parent="1">
          <mxGeometry x="342.5" y="370" width="235" height="120" as="geometry" />
        </mxCell>
        <mxCell id="XO7gvqgN6Dit9ECeOsk--18" style="edgeStyle=orthogonalEdgeStyle;rounded=0;orthogonalLoop=1;jettySize=auto;html=1;entryX=0.5;entryY=1;entryDx=0;entryDy=0;" edge="1" parent="1" source="XO7gvqgN6Dit9ECeOsk--19" target="XO7gvqgN6Dit9ECeOsk--17">
          <mxGeometry relative="1" as="geometry">
            <Array as="points">
              <mxPoint x="345" y="510" />
              <mxPoint x="460" y="510" />
            </Array>
          </mxGeometry>
        </mxCell>
        <mxCell id="XO7gvqgN6Dit9ECeOsk--19" value="Estandar" style="swimlane;fontStyle=1;align=center;verticalAlign=top;childLayout=stackLayout;horizontal=1;startSize=26;horizontalStack=0;resizeParent=1;resizeParentMax=0;resizeLast=0;collapsible=1;marginBottom=0;whiteSpace=wrap;html=1;" vertex="1" parent="1">
          <mxGeometry x="265" y="520" width="160" height="84" as="geometry" />
        </mxCell>
        <mxCell id="XO7gvqgN6Dit9ECeOsk--20" value="-&amp;nbsp;" style="text;strokeColor=none;fillColor=none;align=left;verticalAlign=top;spacingLeft=4;spacingRight=4;overflow=hidden;rotatable=0;points=[[0,0.5],[1,0.5]];portConstraint=eastwest;whiteSpace=wrap;html=1;" vertex="1" parent="XO7gvqgN6Dit9ECeOsk--19">
          <mxGeometry y="26" width="160" height="24" as="geometry" />
        </mxCell>
        <mxCell id="XO7gvqgN6Dit9ECeOsk--21" value="" style="line;strokeWidth=1;fillColor=none;align=left;verticalAlign=middle;spacingTop=-1;spacingLeft=3;spacingRight=3;rotatable=0;labelPosition=right;points=[];portConstraint=eastwest;strokeColor=inherit;" vertex="1" parent="XO7gvqgN6Dit9ECeOsk--19">
          <mxGeometry y="50" width="160" height="8" as="geometry" />
        </mxCell>
        <mxCell id="XO7gvqgN6Dit9ECeOsk--22" value="-" style="text;strokeColor=none;fillColor=none;align=left;verticalAlign=top;spacingLeft=4;spacingRight=4;overflow=hidden;rotatable=0;points=[[0,0.5],[1,0.5]];portConstraint=eastwest;whiteSpace=wrap;html=1;" vertex="1" parent="XO7gvqgN6Dit9ECeOsk--19">
          <mxGeometry y="58" width="160" height="26" as="geometry" />
        </mxCell>
        <mxCell id="XO7gvqgN6Dit9ECeOsk--23" style="edgeStyle=orthogonalEdgeStyle;rounded=0;orthogonalLoop=1;jettySize=auto;html=1;exitX=0.5;exitY=0;exitDx=0;exitDy=0;" edge="1" parent="1" source="XO7gvqgN6Dit9ECeOsk--24">
          <mxGeometry relative="1" as="geometry">
            <mxPoint x="460" y="490" as="targetPoint" />
            <Array as="points">
              <mxPoint x="575" y="510" />
              <mxPoint x="460" y="510" />
            </Array>
          </mxGeometry>
        </mxCell>
        <mxCell id="XO7gvqgN6Dit9ECeOsk--24" value="Ejecutiva" style="swimlane;fontStyle=1;align=center;verticalAlign=top;childLayout=stackLayout;horizontal=1;startSize=26;horizontalStack=0;resizeParent=1;resizeParentMax=0;resizeLast=0;collapsible=1;marginBottom=0;whiteSpace=wrap;html=1;" vertex="1" parent="1">
          <mxGeometry x="495" y="520" width="160" height="84" as="geometry" />
        </mxCell>
        <mxCell id="XO7gvqgN6Dit9ECeOsk--25" value="-&amp;nbsp;" style="text;strokeColor=none;fillColor=none;align=left;verticalAlign=top;spacingLeft=4;spacingRight=4;overflow=hidden;rotatable=0;points=[[0,0.5],[1,0.5]];portConstraint=eastwest;whiteSpace=wrap;html=1;" vertex="1" parent="XO7gvqgN6Dit9ECeOsk--24">
          <mxGeometry y="26" width="160" height="24" as="geometry" />
        </mxCell>
        <mxCell id="XO7gvqgN6Dit9ECeOsk--26" value="" style="line;strokeWidth=1;fillColor=none;align=left;verticalAlign=middle;spacingTop=-1;spacingLeft=3;spacingRight=3;rotatable=0;labelPosition=right;points=[];portConstraint=eastwest;strokeColor=inherit;" vertex="1" parent="XO7gvqgN6Dit9ECeOsk--24">
          <mxGeometry y="50" width="160" height="8" as="geometry" />
        </mxCell>
        <mxCell id="XO7gvqgN6Dit9ECeOsk--27" value="-" style="text;strokeColor=none;fillColor=none;align=left;verticalAlign=top;spacingLeft=4;spacingRight=4;overflow=hidden;rotatable=0;points=[[0,0.5],[1,0.5]];portConstraint=eastwest;whiteSpace=wrap;html=1;" vertex="1" parent="XO7gvqgN6Dit9ECeOsk--24">
          <mxGeometry y="58" width="160" height="26" as="geometry" />
        </mxCell>
        <mxCell id="XO7gvqgN6Dit9ECeOsk--28" value="avion" style="text;html=1;align=center;verticalAlign=middle;resizable=0;points=[];autosize=1;strokeColor=none;fillColor=none;" vertex="1" parent="1">
          <mxGeometry x="455" y="318" width="50" height="30" as="geometry" />
        </mxCell>
        <mxCell id="XO7gvqgN6Dit9ECeOsk--29" value="Empresa" style="swimlane;fontStyle=1;align=center;verticalAlign=top;childLayout=stackLayout;horizontal=1;startSize=26;horizontalStack=0;resizeParent=1;resizeParentMax=0;resizeLast=0;collapsible=1;marginBottom=0;whiteSpace=wrap;html=1;" vertex="1" parent="1">
          <mxGeometry x="270" y="-160" width="240" height="200" as="geometry" />
        </mxCell>
        <mxCell id="XO7gvqgN6Dit9ECeOsk--30" value="-" style="text;strokeColor=none;fillColor=none;align=left;verticalAlign=top;spacingLeft=4;spacingRight=4;overflow=hidden;rotatable=0;points=[[0,0.5],[1,0.5]];portConstraint=eastwest;whiteSpace=wrap;html=1;" vertex="1" parent="XO7gvqgN6Dit9ECeOsk--29">
          <mxGeometry y="26" width="240" height="26" as="geometry" />
        </mxCell>
        <mxCell id="XO7gvqgN6Dit9ECeOsk--31" value="" style="line;strokeWidth=1;fillColor=none;align=left;verticalAlign=middle;spacingTop=-1;spacingLeft=3;spacingRight=3;rotatable=0;labelPosition=right;points=[];portConstraint=eastwest;strokeColor=inherit;" vertex="1" parent="XO7gvqgN6Dit9ECeOsk--29">
          <mxGeometry y="52" width="240" height="8" as="geometry" />
        </mxCell>
        <mxCell id="XO7gvqgN6Dit9ECeOsk--32" value="+ promedioOcupacion:Real[*]&lt;br&gt;+ horasVoladasPorAvionEntre(inicio:Date, fin:Date)&lt;br&gt;+ horasVoladasPorAvionTotal():Time[*]&lt;br&gt;+ montoTotalDescuentos():Real&lt;br&gt;+ eficienciaTarifas():Real&lt;div&gt;+ emitir()&lt;br&gt;+ cancelar(pasaje:Pasaje)&lt;br&gt;+ modificar(pasaje:Pasaje)&lt;br&gt;&lt;/div&gt;" style="text;strokeColor=none;fillColor=none;align=left;verticalAlign=top;spacingLeft=4;spacingRight=4;overflow=hidden;rotatable=0;points=[[0,0.5],[1,0.5]];portConstraint=eastwest;whiteSpace=wrap;html=1;" vertex="1" parent="XO7gvqgN6Dit9ECeOsk--29">
          <mxGeometry y="60" width="240" height="140" as="geometry" />
        </mxCell>
        <mxCell id="XO7gvqgN6Dit9ECeOsk--33" style="edgeStyle=orthogonalEdgeStyle;rounded=0;orthogonalLoop=1;jettySize=auto;html=1;entryX=0.5;entryY=0;entryDx=0;entryDy=0;" edge="1" parent="1" source="XO7gvqgN6Dit9ECeOsk--32" target="XO7gvqgN6Dit9ECeOsk--6">
          <mxGeometry relative="1" as="geometry" />
        </mxCell>
        <mxCell id="XO7gvqgN6Dit9ECeOsk--34" style="edgeStyle=orthogonalEdgeStyle;rounded=0;orthogonalLoop=1;jettySize=auto;html=1;entryX=0.5;entryY=0;entryDx=0;entryDy=0;exitX=0.793;exitY=1.007;exitDx=0;exitDy=0;exitPerimeter=0;" edge="1" parent="1" source="XO7gvqgN6Dit9ECeOsk--32" target="XO7gvqgN6Dit9ECeOsk--11">
          <mxGeometry relative="1" as="geometry">
            <Array as="points">
              <mxPoint x="460" y="39" />
            </Array>
          </mxGeometry>
        </mxCell>
        <mxCell id="XO7gvqgN6Dit9ECeOsk--35" value="0..*&lt;br&gt;vuelos" style="text;html=1;align=center;verticalAlign=middle;resizable=0;points=[];autosize=1;strokeColor=none;fillColor=none;" vertex="1" parent="1">
          <mxGeometry x="451" y="82" width="60" height="40" as="geometry" />
        </mxCell>
        <mxCell id="XO7gvqgN6Dit9ECeOsk--36" value="0..*&lt;br&gt;pasajes" style="text;html=1;align=center;verticalAlign=middle;resizable=0;points=[];autosize=1;strokeColor=none;fillColor=none;" vertex="1" parent="1">
          <mxGeometry x="160" y="-68" width="60" height="40" as="geometry" />
        </mxCell>
        <mxCell id="XO7gvqgN6Dit9ECeOsk--37" value="Vuelo" style="swimlane;fontStyle=1;align=center;verticalAlign=top;childLayout=stackLayout;horizontal=1;startSize=26;horizontalStack=0;resizeParent=1;resizeParentMax=0;resizeLast=0;collapsible=1;marginBottom=0;whiteSpace=wrap;html=1;" vertex="1" parent="1">
          <mxGeometry x="631" y="136" width="160" height="130" as="geometry" />
        </mxCell>
        <mxCell id="XO7gvqgN6Dit9ECeOsk--38" value="- salidaReal:Hour&lt;br&gt;&lt;div&gt;- origen:String&lt;/div&gt;&lt;div&gt;- destino: String&lt;/div&gt;" style="text;strokeColor=none;fillColor=none;align=left;verticalAlign=top;spacingLeft=4;spacingRight=4;overflow=hidden;rotatable=0;points=[[0,0.5],[1,0.5]];portConstraint=eastwest;whiteSpace=wrap;html=1;" vertex="1" parent="XO7gvqgN6Dit9ECeOsk--37">
          <mxGeometry y="26" width="160" height="54" as="geometry" />
        </mxCell>
        <mxCell id="XO7gvqgN6Dit9ECeOsk--39" value="" style="line;strokeWidth=1;fillColor=none;align=left;verticalAlign=middle;spacingTop=-1;spacingLeft=3;spacingRight=3;rotatable=0;labelPosition=right;points=[];portConstraint=eastwest;strokeColor=inherit;" vertex="1" parent="XO7gvqgN6Dit9ECeOsk--37">
          <mxGeometry y="80" width="160" height="8" as="geometry" />
        </mxCell>
        <mxCell id="XO7gvqgN6Dit9ECeOsk--40" value="+ duracion():Time&lt;br&gt;+ horaLlegada():Hour" style="text;strokeColor=none;fillColor=none;align=left;verticalAlign=top;spacingLeft=4;spacingRight=4;overflow=hidden;rotatable=0;points=[[0,0.5],[1,0.5]];portConstraint=eastwest;whiteSpace=wrap;html=1;" vertex="1" parent="XO7gvqgN6Dit9ECeOsk--37">
          <mxGeometry y="88" width="160" height="42" as="geometry" />
        </mxCell>
        <mxCell id="XO7gvqgN6Dit9ECeOsk--41" style="edgeStyle=orthogonalEdgeStyle;rounded=0;orthogonalLoop=1;jettySize=auto;html=1;entryX=0;entryY=0.5;entryDx=0;entryDy=0;" edge="1" parent="1" source="XO7gvqgN6Dit9ECeOsk--12" target="XO7gvqgN6Dit9ECeOsk--38">
          <mxGeometry relative="1" as="geometry" />
        </mxCell>
        <mxCell id="XO7gvqgN6Dit9ECeOsk--42" style="edgeStyle=orthogonalEdgeStyle;rounded=0;orthogonalLoop=1;jettySize=auto;html=1;entryX=0.25;entryY=1;entryDx=0;entryDy=0;" edge="1" parent="1" source="XO7gvqgN6Dit9ECeOsk--43" target="XO7gvqgN6Dit9ECeOsk--11">
          <mxGeometry relative="1" as="geometry" />
        </mxCell>
        <mxCell id="XO7gvqgN6Dit9ECeOsk--43" value="Asiento" style="swimlane;fontStyle=1;align=center;verticalAlign=top;childLayout=stackLayout;horizontal=1;startSize=26;horizontalStack=0;resizeParent=1;resizeParentMax=0;resizeLast=0;collapsible=1;marginBottom=0;whiteSpace=wrap;html=1;" vertex="1" parent="1">
          <mxGeometry x="182.5" y="250" width="160" height="86" as="geometry" />
        </mxCell>
        <mxCell id="XO7gvqgN6Dit9ECeOsk--44" value="- numero:Integer" style="text;strokeColor=none;fillColor=none;align=left;verticalAlign=top;spacingLeft=4;spacingRight=4;overflow=hidden;rotatable=0;points=[[0,0.5],[1,0.5]];portConstraint=eastwest;whiteSpace=wrap;html=1;" vertex="1" parent="XO7gvqgN6Dit9ECeOsk--43">
          <mxGeometry y="26" width="160" height="26" as="geometry" />
        </mxCell>
        <mxCell id="XO7gvqgN6Dit9ECeOsk--45" value="" style="line;strokeWidth=1;fillColor=none;align=left;verticalAlign=middle;spacingTop=-1;spacingLeft=3;spacingRight=3;rotatable=0;labelPosition=right;points=[];portConstraint=eastwest;strokeColor=inherit;" vertex="1" parent="XO7gvqgN6Dit9ECeOsk--43">
          <mxGeometry y="52" width="160" height="8" as="geometry" />
        </mxCell>
        <mxCell id="XO7gvqgN6Dit9ECeOsk--46" value="-" style="text;strokeColor=none;fillColor=none;align=left;verticalAlign=top;spacingLeft=4;spacingRight=4;overflow=hidden;rotatable=0;points=[[0,0.5],[1,0.5]];portConstraint=eastwest;whiteSpace=wrap;html=1;" vertex="1" parent="XO7gvqgN6Dit9ECeOsk--43">
          <mxGeometry y="60" width="160" height="26" as="geometry" />
        </mxCell>
        <mxCell id="XO7gvqgN6Dit9ECeOsk--47" style="edgeStyle=orthogonalEdgeStyle;rounded=0;orthogonalLoop=1;jettySize=auto;html=1;entryX=0.25;entryY=0;entryDx=0;entryDy=0;" edge="1" parent="1" source="XO7gvqgN6Dit9ECeOsk--9" target="XO7gvqgN6Dit9ECeOsk--43">
          <mxGeometry relative="1" as="geometry" />
        </mxCell>
        <mxCell id="XO7gvqgN6Dit9ECeOsk--48" value="asiento" style="text;html=1;align=center;verticalAlign=middle;resizable=0;points=[];autosize=1;strokeColor=none;fillColor=none;" vertex="1" parent="1">
          <mxGeometry x="215" y="208" width="60" height="30" as="geometry" />
        </mxCell>
        <mxCell id="XO7gvqgN6Dit9ECeOsk--49" value="tramo" style="text;html=1;align=center;verticalAlign=middle;resizable=0;points=[];autosize=1;strokeColor=none;fillColor=none;" vertex="1" parent="1">
          <mxGeometry x="365" y="288" width="50" height="30" as="geometry" />
        </mxCell>
        <mxCell id="XO7gvqgN6Dit9ECeOsk--50" value="vuelo" style="text;html=1;align=center;verticalAlign=middle;resizable=0;points=[];autosize=1;strokeColor=none;fillColor=none;" vertex="1" parent="1">
          <mxGeometry x="559" y="165" width="50" height="30" as="geometry" />
        </mxCell>
        <mxCell id="XO7gvqgN6Dit9ECeOsk--51" value="pasajero" style="text;html=1;align=center;verticalAlign=middle;resizable=0;points=[];autosize=1;strokeColor=none;fillColor=none;" vertex="1" parent="1">
          <mxGeometry x="13" y="258" width="70" height="30" as="geometry" />
        </mxCell>
      </root>
    </mxGraphModel>
  </diagram>
</mxfile>
